<svg width="48" height="48" viewBox="0 0 48 48" fill="none" xmlns="http://www.w3.org/2000/svg">
<path d="M18.0998 4.00006C19.9618 3.9804 21.6998 4.8404 22.8398 6.3004L24.5998 8.6404C25.1598 9.3404 25.9998 9.7604 26.8998 9.7604H33.0398C40.4198 9.7604 44.0197 13.7004 43.9998 21.7804V31.5204C43.9998 39.2404 39.2398 44.0004 31.4998 44.0004H16.4798C8.77976 44.0004 3.99976 39.2404 3.99976 31.5004V16.4804C3.99976 8.2004 7.67976 4.00006 14.9398 4.00006H18.0998ZM33.2598 27.5804H14.7398C13.8998 27.5804 13.2398 28.2404 13.2398 29.0804C13.2398 29.9004 13.8998 30.5804 14.7398 30.5804H33.2598C34.0798 30.5804 34.7398 29.9004 34.7398 29.0804C34.7398 28.2404 34.0798 27.5804 33.2598 27.5804Z" fill="#200E32"/>
</svg>
