<svg width="48" height="48" viewBox="0 0 48 48" fill="none" xmlns="http://www.w3.org/2000/svg">
<path d="M33.0311 6C39.9289 6 44 9.96919 44 16.7636H35.5378V16.8329C31.6104 16.8329 28.4267 19.937 28.4267 23.766C28.4267 27.595 31.6104 30.6991 35.5378 30.6991H44V31.3231C44 38.0308 39.9289 42 33.0311 42H14.9689C8.07111 42 4 38.0308 4 31.3231V16.6769C4 9.96919 8.07111 6 14.9689 6H33.0311ZM42.5067 19.7448C43.3314 19.7448 44 20.3967 44 21.2008V26.2619C43.9904 27.0621 43.3274 27.7085 42.5067 27.7179H35.6978C33.7096 27.7439 31.971 26.4167 31.52 24.5286C31.2942 23.3566 31.6112 22.1471 32.3861 21.2244C33.1611 20.3017 34.3147 19.7601 35.5378 19.7448H42.5067ZM36.4978 22.0847H35.84C35.4362 22.0801 35.0472 22.2333 34.76 22.5101C34.4727 22.7869 34.3111 23.1643 34.3111 23.558C34.3111 24.3841 34.9928 25.0565 35.84 25.066H36.4978C37.3422 25.066 38.0267 24.3986 38.0267 23.5753C38.0267 22.7521 37.3422 22.0847 36.4978 22.0847ZM24.7644 13.7824H13.4756C12.6381 13.7823 11.9564 14.4392 11.9467 15.2557C11.9467 16.0817 12.6283 16.7541 13.4756 16.7636H24.7644C25.6088 16.7636 26.2933 16.0962 26.2933 15.273C26.2933 14.4497 25.6088 13.7824 24.7644 13.7824Z" fill="#200E32"/>
</svg>
